<svg xmlns="http://www.w3.org/2000/svg" width="19.715" height="19.714" viewBox="0 0 19.715 19.714">
  <path id="Icon_awesome-linkedin-in" data-name="Icon awesome-linkedin-in" d="M4.413,19.715H.326V6.553H4.413ZM2.367,4.757a2.378,2.378,0,1,1,2.367-2.39A2.387,2.387,0,0,1,2.367,4.757ZM19.71,19.715H15.632V13.308c0-1.527-.031-3.485-2.125-3.485-2.125,0-2.451,1.659-2.451,3.375v6.517H6.973V6.553h3.92v1.8h.057a4.3,4.3,0,0,1,3.867-2.126c4.137,0,4.9,2.724,4.9,6.262v7.23Z" transform="translate(0 -0.001)" fill="#fff"/>
</svg>
