<svg xmlns="http://www.w3.org/2000/svg" xmlns:xlink="http://www.w3.org/1999/xlink" width="123" height="61" viewBox="0 0 123 61">
  <defs>
    <clipPath id="clip-path">
      <rect id="Rectangle_16" data-name="Rectangle 16" width="123" height="61" transform="translate(0 -0.481)" fill="none"/>
    </clipPath>
  </defs>
  <g id="Group_14" data-name="Group 14" transform="translate(0 0.481)">
    <path id="Path_65" data-name="Path 65" d="M41.454,101.083H46.1v.754H42.35v2.141h3.5v.754h-3.5v2.33h3.782v.754H41.454Z" transform="translate(-23.962 -58.43)" fill="#161615"/>
    <g id="Group_6" data-name="Group 6">
      <g id="Group_5" data-name="Group 5" clip-path="url(#clip-path)">
        <path id="Path_66" data-name="Path 66" d="M54.8,105.332h.754v.716h.019a1.8,1.8,0,0,1,1.575-.83,1.293,1.293,0,0,1,1.339.83,1.805,1.805,0,0,1,1.528-.83c.971,0,1.622.405,1.622,1.415v3.575h-.8v-3.2c0-.6-.16-1.085-.944-1.085a1.181,1.181,0,0,0-1.273,1.245v3.038h-.8v-3.2c0-.633-.2-1.085-.915-1.085a1.315,1.315,0,0,0-1.3,1.245v3.038h-.8Z" transform="translate(-31.674 -60.82)" fill="#161615"/>
        <path id="Path_67" data-name="Path 67" d="M73.928,101.084h.8V103.6h.019a1.643,1.643,0,0,1,1.557-.773,2.285,2.285,0,0,1,2.245,2.566,2.253,2.253,0,0,1-2.226,2.538,1.868,1.868,0,0,1-1.576-.764h-.019v.651h-.8Zm2.264,2.452c-1.076,0-1.49.924-1.49,1.839,0,.962.434,1.849,1.538,1.849s1.462-.934,1.462-1.886c0-.915-.471-1.8-1.509-1.8" transform="translate(-42.733 -58.431)" fill="#161615"/>
        <path id="Path_68" data-name="Path 68" d="M90.912,108.662a1.967,1.967,0,0,1-2.084,1.66c-1.557,0-2.292-1.076-2.339-2.566a2.347,2.347,0,0,1,2.292-2.537c1.726,0,2.255,1.613,2.208,2.792H87.337a1.437,1.437,0,0,0,1.519,1.6,1.175,1.175,0,0,0,1.264-.953Zm-.773-1.358a1.4,1.4,0,0,0-1.406-1.377,1.389,1.389,0,0,0-1.4,1.377Z" transform="translate(-49.994 -60.821)" fill="#161615"/>
        <path id="Path_69" data-name="Path 69" d="M103.112,107.818h-.8v-.66h-.019a1.643,1.643,0,0,1-1.556.773,2.285,2.285,0,0,1-2.245-2.566,2.252,2.252,0,0,1,2.226-2.537,1.868,1.868,0,0,1,1.576.764h.019v-2.509h.8Zm-2.263-.594c1.075,0,1.49-.924,1.49-1.839,0-.962-.434-1.849-1.537-1.849s-1.462.934-1.462,1.886c0,.915.472,1.8,1.509,1.8" transform="translate(-56.931 -58.43)" fill="#161615"/>
        <path id="Path_70" data-name="Path 70" d="M116.364,107.818h-.8v-.66h-.019a1.643,1.643,0,0,1-1.556.773,2.285,2.285,0,0,1-2.245-2.566,2.252,2.252,0,0,1,2.226-2.537,1.868,1.868,0,0,1,1.575.764h.019v-2.509h.8Zm-2.263-.594c1.075,0,1.49-.924,1.49-1.839,0-.962-.434-1.849-1.537-1.849s-1.462.934-1.462,1.886c0,.915.472,1.8,1.509,1.8" transform="translate(-64.592 -58.43)" fill="#161615"/>
        <path id="Path_71" data-name="Path 71" d="M129.42,108.662a1.966,1.966,0,0,1-2.084,1.66c-1.557,0-2.292-1.076-2.339-2.566a2.347,2.347,0,0,1,2.292-2.537c1.726,0,2.255,1.613,2.208,2.792h-3.651a1.437,1.437,0,0,0,1.519,1.6,1.175,1.175,0,0,0,1.264-.953Zm-.773-1.358a1.4,1.4,0,0,0-1.406-1.377,1.389,1.389,0,0,0-1.4,1.377Z" transform="translate(-72.253 -60.821)" fill="#161615"/>
        <path id="Path_72" data-name="Path 72" d="M141.619,107.818h-.8v-.66H140.8a1.643,1.643,0,0,1-1.557.773A2.285,2.285,0,0,1,137,105.365a2.252,2.252,0,0,1,2.226-2.537,1.868,1.868,0,0,1,1.576.764h.019v-2.509h.8Zm-2.263-.594c1.075,0,1.49-.924,1.49-1.839,0-.962-.434-1.849-1.537-1.849s-1.462.934-1.462,1.886c0,.915.472,1.8,1.509,1.8" transform="translate(-79.19 -58.43)" fill="#161615"/>
        <path id="Path_73" data-name="Path 73" d="M160.768,102.835a1.471,1.471,0,0,0-1.669-1.377c-.755,0-1.51.274-1.51,1.151,0,.83,1.076.953,2.16,1.2s2.151.622,2.151,1.943c0,1.434-1.406,2.009-2.632,2.009-1.51,0-2.783-.735-2.783-2.377h.849c0,1.132.944,1.622,1.963,1.622.811,0,1.708-.255,1.708-1.226,0-.925-1.076-1.085-2.151-1.321s-2.16-.547-2.16-1.783c0-1.368,1.217-1.971,2.443-1.971a2.169,2.169,0,0,1,2.481,2.132Z" transform="translate(-90.455 -58.211)" fill="#161615"/>
        <path id="Path_74" data-name="Path 74" d="M175.371,108.662a1.967,1.967,0,0,1-2.085,1.66c-1.556,0-2.292-1.076-2.339-2.566a2.347,2.347,0,0,1,2.292-2.537c1.726,0,2.254,1.613,2.207,2.792H171.8a1.437,1.437,0,0,0,1.519,1.6,1.174,1.174,0,0,0,1.263-.953ZM174.6,107.3a1.4,1.4,0,0,0-1.405-1.377,1.389,1.389,0,0,0-1.4,1.377Z" transform="translate(-98.814 -60.821)" fill="#161615"/>
        <path id="Path_75" data-name="Path 75" d="M186.523,106.9a1.135,1.135,0,0,0-1.207-.971c-1.16,0-1.519.915-1.519,1.906,0,.9.405,1.783,1.424,1.783a1.261,1.261,0,0,0,1.339-1.189h.821a2.026,2.026,0,0,1-2.15,1.9,2.218,2.218,0,0,1-2.283-2.49c0-1.462.754-2.613,2.3-2.613a1.87,1.87,0,0,1,2.1,1.679Z" transform="translate(-105.752 -60.821)" fill="#161615"/>
        <path id="Path_76" data-name="Path 76" d="M199.613,110.364h-.755v-.773h-.019a1.7,1.7,0,0,1-1.584.887c-1.283,0-1.679-.736-1.679-1.783v-3.207h.8v3.3a.919.919,0,0,0,.991.981,1.371,1.371,0,0,0,1.443-1.528v-2.755h.8Z" transform="translate(-113.051 -60.976)" fill="#161615"/>
        <path id="Path_77" data-name="Path 77" d="M207.935,105.33h.755v1.028h.019a1.773,1.773,0,0,1,1.792-1.142v.849c-1.292,0-1.765.735-1.765,1.971v2.17h-.8Z" transform="translate(-120.195 -60.818)" fill="#161615"/>
        <path id="Path_78" data-name="Path 78" d="M216.358,102.064h-.8v-.981h.8Zm-.8.877h.8v4.877h-.8Z" transform="translate(-124.6 -58.43)" fill="#161615"/>
        <path id="Path_79" data-name="Path 79" d="M220.809,103.484h.972v.707h-.972v3.028c0,.368.1.434.6.434h.368v.708h-.613c-.83,0-1.16-.17-1.16-1.066v-3.1h-.83v-.707h.83v-1.462h.8Z" transform="translate(-126.693 -58.973)" fill="#161615"/>
        <path id="Path_80" data-name="Path 80" d="M228.637,111.014c-.368.953-.7,1.3-1.415,1.3a1.591,1.591,0,0,1-.556-.085V111.5a1.654,1.654,0,0,0,.471.113.694.694,0,0,0,.661-.443l.33-.83-1.933-4.848h.906l1.424,3.99h.019l1.368-3.99h.849Z" transform="translate(-130.75 -60.976)" fill="#161615"/>
        <path id="Path_81" data-name="Path 81" d="M169.178,128.064h-.8v-.981h.8Zm-.8.878h.8v4.877h-.8Z" transform="translate(-97.328 -73.459)" fill="#161615"/>
        <path id="Path_82" data-name="Path 82" d="M173.226,131.332h.755v.773H174a1.7,1.7,0,0,1,1.585-.887c1.282,0,1.679.736,1.679,1.783v3.207h-.8v-3.3a.919.919,0,0,0-.991-.981,1.37,1.37,0,0,0-1.443,1.528v2.755h-.8Z" transform="translate(-100.132 -75.849)" fill="#161615"/>
        <path id="Path_83" data-name="Path 83" d="M196.461,128.892a1.775,1.775,0,0,0-1.887-1.434c-1.6,0-2.282,1.32-2.282,2.726,0,1.537.679,2.82,2.292,2.82a1.905,1.905,0,0,0,1.943-1.943h.9a2.741,2.741,0,0,1-2.915,2.7c-2.094,0-3.113-1.547-3.113-3.509s1.114-3.547,3.189-3.547a2.578,2.578,0,0,1,2.773,2.189Z" transform="translate(-110.634 -73.24)" fill="#161615"/>
        <path id="Path_84" data-name="Path 84" d="M211.961,136.19a1.082,1.082,0,0,1-.575.132c-.416,0-.68-.227-.68-.755a2.162,2.162,0,0,1-1.717.755c-.886,0-1.613-.4-1.613-1.368,0-1.1.821-1.34,1.651-1.5.887-.17,1.641-.113,1.641-.717,0-.7-.575-.811-1.085-.811-.679,0-1.179.208-1.216.925h-.8c.047-1.208.981-1.632,2.066-1.632.877,0,1.83.2,1.83,1.339v2.509c0,.377,0,.547.255.547a.688.688,0,0,0,.246-.048Zm-1.3-2.5a4.115,4.115,0,0,1-1.452.33c-.528.094-.982.283-.982.877,0,.528.454.717.944.717,1.057,0,1.49-.66,1.49-1.1Z" transform="translate(-119.872 -75.85)" fill="#161615"/>
        <path id="Path_85" data-name="Path 85" d="M219.936,131.33h.755v1.028h.019a1.773,1.773,0,0,1,1.792-1.141v.849c-1.292,0-1.765.735-1.765,1.971v2.17h-.8Z" transform="translate(-127.132 -75.847)" fill="#161615"/>
        <path id="Path_86" data-name="Path 86" d="M227.511,134.671c.029.717.651.943,1.311.943.5,0,1.179-.113,1.179-.726s-.792-.726-1.594-.906-1.595-.443-1.595-1.377c0-.981.971-1.387,1.82-1.387,1.076,0,1.934.34,2,1.528h-.8c-.057-.622-.6-.82-1.132-.82-.481,0-1.038.132-1.038.622,0,.576.849.67,1.594.849.8.179,1.594.443,1.594,1.387,0,1.16-1.084,1.537-2.075,1.537-1.095,0-2.018-.443-2.065-1.651Z" transform="translate(-131.048 -75.85)" fill="#161615"/>
        <path id="Path_87" data-name="Path 87" d="M21.407,42.247V40.768c0-6.961-2.909-11.871-10.394-11.871C3.48,28.9,0,34.332,0,41.436c0,7.438,4.052,12.206,11.633,12.206,3.719,0,8.629-1.24,8.868-5.769H15.638c-.524,1.525-2.336,1.669-3.766,1.669-4.386,0-7.2-2.956-6.961-7.294Zm-16.5-4.1C5.1,34.952,7.914,33,10.918,33c3.147,0,5.531,1.955,5.578,5.149Z" transform="translate(0 -16.704)" fill="#161615" fill-rule="evenodd"/>
        <path id="Path_88" data-name="Path 88" d="M82.025,35.285V34.57c0-3.814-4.577-5.674-8.964-5.674-3.766,0-9.44,1.239-9.44,6.818a5.9,5.9,0,0,0,3.528,5.721,33.5,33.5,0,0,0,7.1,2c1.955.334,3.91.716,3.91,3.147,0,2.766-3.815,3.338-5.864,3.338-1.573,0-4.53-.238-4.625-3.052H62.763c0,5.293,5.006,6.77,9.44,6.77,4.625,0,10.87-1.287,10.87-7.056,0-6.436-6.579-7.1-11.395-8.057-1.811-.334-3.147-1-3.147-3.051,0-2.432,2.766-2.861,4.529-2.861,1.478,0,3.958.524,4.053,2.67Z" transform="translate(-36.28 -16.703)" fill="#161615"/>
        <path id="Path_89" data-name="Path 89" d="M142.007,35.762c-.715-4.672-4.482-6.866-8.916-6.866-6.961,0-10.537,5.864-10.537,12.253,0,6.436,3.051,12.491,10.108,12.491,4.434,0,9.345-2.67,9.345-7.724H137.1c0,2.051-2,3.624-4.1,3.624-4.625,0-5.531-4.672-5.531-8.439,0-3.909,1-8.105,5.769-8.105,1.811,0,3.766,1.049,3.861,2.766Z" transform="translate(-70.841 -16.703)" fill="#0056a4"/>
        <path id="Path_90" data-name="Path 90" d="M198.938,41.913v.81c0,3.909-2.1,7.2-6.437,7.2-2.384,0-4.147-1.383-4.147-3.862,0-3.147,2.813-4.148,5.482-4.148Zm0,11.3h4.91V38.337c0-7.009-2.669-9.44-9.583-9.44-4.386,0-9.44,1.144-9.774,6.437h4.91c0-2.336,2.575-2.718,5.1-2.718,4.053,0,4.434,2,4.434,4.72v.858H194.5c-5.244,0-11.061,1.859-11.061,8.057,0,4.863,3.957,7.39,8.582,7.39a10.109,10.109,0,0,0,6.913-2.717Z" transform="translate(-106.037 -16.704)" fill="#0056a4" fill-rule="evenodd"/>
        <path id="Path_91" data-name="Path 91" d="M253.33,29.325h-4.911V53.212h4.911V40.863c0-3.623.954-8.3,5.626-8.3,2.1,0,3,1.955,3,3.814V37.1h4.911v-.954a6.986,6.986,0,0,0-7.247-7.247,7.589,7.589,0,0,0-6.2,3.052h-.1Z" transform="translate(-143.597 -16.703)" fill="#0056a4"/>
        <rect id="Rectangle_13" data-name="Rectangle 13" width="4.875" height="6.899" transform="translate(104.703 53.552)" fill="#0056a4"/>
        <rect id="Rectangle_14" data-name="Rectangle 14" width="4.875" height="6.898" transform="translate(104.703 42.611)" fill="#0056a4"/>
        <rect id="Rectangle_15" data-name="Rectangle 15" width="4.875" height="6.899" transform="translate(104.703)" fill="#0056a4"/>
      </g>
    </g>
  </g>
</svg>
