<svg id="Group_200" data-name="Group 200" xmlns="http://www.w3.org/2000/svg" xmlns:xlink="http://www.w3.org/1999/xlink" width="109.995" height="54" viewBox="0 0 109.995 54">
  <defs>
    <clipPath id="clip-path">
      <rect id="Rectangle_16" data-name="Rectangle 16" width="109.995" height="54" fill="#f3f3f3"/>
    </clipPath>
  </defs>
  <path id="Path_65" data-name="Path 65" d="M41.454,101.083H45.6v.673H42.253v1.911h3.122v.673H42.253v2.079h3.375v.673H41.454Z" transform="translate(-25.846 -63.025)" fill="#f3f3f3"/>
  <g id="Group_6" data-name="Group 6">
    <g id="Group_5" data-name="Group 5" clip-path="url(#clip-path)">
      <path id="Path_66" data-name="Path 66" d="M54.8,105.319h.673v.639h.017a1.6,1.6,0,0,1,1.405-.741,1.154,1.154,0,0,1,1.2.741,1.611,1.611,0,0,1,1.364-.741c.867,0,1.448.362,1.448,1.262v3.19h-.715v-2.853c0-.539-.143-.968-.842-.968A1.054,1.054,0,0,0,58.2,106.96v2.71h-.716v-2.853c0-.564-.177-.968-.816-.968a1.173,1.173,0,0,0-1.162,1.111v2.71H54.8Z" transform="translate(-34.165 -65.603)" fill="#f3f3f3"/>
      <path id="Path_67" data-name="Path 67" d="M73.928,101.084h.715v2.247h.017a1.466,1.466,0,0,1,1.389-.69,2.039,2.039,0,0,1,2,2.289,2.01,2.01,0,0,1-1.986,2.264,1.667,1.667,0,0,1-1.406-.682h-.017v.581h-.715Zm2.02,2.188c-.96,0-1.33.825-1.33,1.641,0,.859.387,1.65,1.372,1.65s1.3-.833,1.3-1.683c0-.817-.421-1.608-1.346-1.608" transform="translate(-46.094 -63.025)" fill="#f3f3f3"/>
      <path id="Path_68" data-name="Path 68" d="M90.435,108.291a1.755,1.755,0,0,1-1.86,1.481c-1.389,0-2.045-.96-2.087-2.29a2.094,2.094,0,0,1,2.045-2.264c1.54,0,2.012,1.439,1.97,2.491H87.245a1.282,1.282,0,0,0,1.355,1.431,1.049,1.049,0,0,0,1.128-.85Zm-.69-1.212a1.252,1.252,0,0,0-1.254-1.229,1.24,1.24,0,0,0-1.246,1.229Z" transform="translate(-53.925 -65.603)" fill="#f3f3f3"/>
      <path id="Path_69" data-name="Path 69" d="M102.614,107.092H101.9V106.5h-.017a1.466,1.466,0,0,1-1.389.69,2.039,2.039,0,0,1-2-2.29,2.01,2.01,0,0,1,1.986-2.264,1.667,1.667,0,0,1,1.406.682h.017v-2.239h.715Zm-2.02-.53c.959,0,1.329-.825,1.329-1.641,0-.859-.387-1.649-1.372-1.649s-1.3.833-1.3,1.683c0,.816.421,1.608,1.347,1.608" transform="translate(-61.408 -63.025)" fill="#f3f3f3"/>
      <path id="Path_70" data-name="Path 70" d="M115.866,107.092h-.715V106.5h-.017a1.466,1.466,0,0,1-1.389.69,2.039,2.039,0,0,1-2-2.29,2.01,2.01,0,0,1,1.986-2.264,1.667,1.667,0,0,1,1.405.682h.017v-2.239h.715Zm-2.02-.53c.959,0,1.329-.825,1.329-1.641,0-.859-.387-1.649-1.372-1.649s-1.3.833-1.3,1.683c0,.816.421,1.608,1.347,1.608" transform="translate(-69.67 -63.025)" fill="#f3f3f3"/>
      <path id="Path_71" data-name="Path 71" d="M128.943,108.291a1.755,1.755,0,0,1-1.86,1.481c-1.389,0-2.045-.96-2.087-2.29a2.094,2.094,0,0,1,2.045-2.264c1.54,0,2.012,1.439,1.97,2.491h-3.258a1.282,1.282,0,0,0,1.355,1.431,1.049,1.049,0,0,0,1.128-.85Zm-.69-1.212A1.252,1.252,0,0,0,127,105.85a1.24,1.24,0,0,0-1.246,1.229Z" transform="translate(-77.934 -65.603)" fill="#f3f3f3"/>
      <path id="Path_72" data-name="Path 72" d="M141.121,107.092h-.715V106.5h-.017a1.466,1.466,0,0,1-1.389.69,2.039,2.039,0,0,1-2-2.29,2.01,2.01,0,0,1,1.986-2.264,1.667,1.667,0,0,1,1.406.682h.017v-2.239h.715Zm-2.02-.53c.959,0,1.329-.825,1.329-1.641,0-.859-.387-1.649-1.372-1.649s-1.3.833-1.3,1.683c0,.816.421,1.608,1.347,1.608" transform="translate(-85.417 -63.025)" fill="#f3f3f3"/>
      <path id="Path_73" data-name="Path 73" d="M160.307,102.605a1.313,1.313,0,0,0-1.489-1.229c-.674,0-1.347.244-1.347,1.027,0,.741.96.85,1.927,1.069s1.919.555,1.919,1.733c0,1.28-1.255,1.793-2.348,1.793-1.347,0-2.483-.656-2.483-2.121h.757c0,1.01.842,1.448,1.751,1.448.724,0,1.524-.227,1.524-1.094,0-.825-.96-.968-1.919-1.178s-1.927-.488-1.927-1.591c0-1.22,1.085-1.759,2.18-1.759a1.936,1.936,0,0,1,2.213,1.9Z" transform="translate(-97.568 -62.788)" fill="#f3f3f3"/>
      <path id="Path_74" data-name="Path 74" d="M174.894,108.291a1.755,1.755,0,0,1-1.86,1.481c-1.389,0-2.045-.96-2.087-2.29a2.094,2.094,0,0,1,2.045-2.264c1.54,0,2.011,1.439,1.969,2.491H171.7a1.282,1.282,0,0,0,1.355,1.431,1.048,1.048,0,0,0,1.127-.85Zm-.691-1.212a1.252,1.252,0,0,0-1.254-1.229,1.239,1.239,0,0,0-1.246,1.229Z" transform="translate(-106.584 -65.603)" fill="#f3f3f3"/>
      <path id="Path_75" data-name="Path 75" d="M186.138,106.717a1.013,1.013,0,0,0-1.077-.867c-1.035,0-1.355.816-1.355,1.7,0,.8.362,1.591,1.271,1.591a1.125,1.125,0,0,0,1.2-1.061h.732a1.808,1.808,0,0,1-1.919,1.692,1.979,1.979,0,0,1-2.037-2.222A2.05,2.05,0,0,1,185,105.219a1.668,1.668,0,0,1,1.878,1.5Z" transform="translate(-114.067 -65.603)" fill="#f3f3f3"/>
      <path id="Path_76" data-name="Path 76" d="M199.178,109.838H198.5v-.69h-.017a1.515,1.515,0,0,1-1.413.791c-1.145,0-1.5-.657-1.5-1.591v-2.861h.715v2.946a.82.82,0,0,0,.884.875,1.223,1.223,0,0,0,1.288-1.363v-2.458h.715Z" transform="translate(-121.94 -65.771)" fill="#f3f3f3"/>
      <path id="Path_77" data-name="Path 77" d="M207.935,105.317h.674v.918h.017a1.582,1.582,0,0,1,1.6-1.019v.758c-1.153,0-1.575.656-1.575,1.759v1.936h-.715Z" transform="translate(-129.646 -65.601)" fill="#f3f3f3"/>
      <path id="Path_78" data-name="Path 78" d="M216.271,101.958h-.715v-.875h.715Zm-.715.783h.715v4.351h-.715Z" transform="translate(-134.398 -63.025)" fill="#f3f3f3"/>
      <path id="Path_79" data-name="Path 79" d="M220.633,103.327h.867v.631h-.867v2.7c0,.328.093.387.538.387h.329v.631h-.547c-.741,0-1.035-.152-1.035-.951v-2.769h-.741v-.631h.741v-1.3h.715Z" transform="translate(-136.656 -63.61)" fill="#f3f3f3"/>
      <path id="Path_80" data-name="Path 80" d="M228.374,110.419c-.328.85-.623,1.162-1.263,1.162a1.42,1.42,0,0,1-.5-.076v-.656a1.476,1.476,0,0,0,.421.1.62.62,0,0,0,.59-.4l.294-.741-1.725-4.326H227l1.271,3.56h.017l1.22-3.56h.757Z" transform="translate(-141.031 -65.771)" fill="#f3f3f3"/>
      <path id="Path_81" data-name="Path 81" d="M169.091,127.958h-.715v-.875h.715Zm-.715.783h.715v4.351h-.715Z" transform="translate(-104.981 -79.235)" fill="#f3f3f3"/>
      <path id="Path_82" data-name="Path 82" d="M173.226,131.319h.674v.69h.017a1.515,1.515,0,0,1,1.414-.791c1.144,0,1.5.657,1.5,1.591v2.862h-.715v-2.946a.82.82,0,0,0-.884-.875,1.223,1.223,0,0,0-1.288,1.363v2.458h-.715Z" transform="translate(-108.005 -81.814)" fill="#f3f3f3"/>
      <path id="Path_83" data-name="Path 83" d="M195.915,128.656a1.583,1.583,0,0,0-1.684-1.279c-1.43,0-2.036,1.178-2.036,2.433,0,1.372.606,2.516,2.045,2.516a1.7,1.7,0,0,0,1.734-1.734h.8a2.446,2.446,0,0,1-2.6,2.407c-1.869,0-2.777-1.38-2.777-3.131s.994-3.165,2.845-3.165a2.3,2.3,0,0,1,2.474,1.953Z" transform="translate(-119.334 -78.999)" fill="#f3f3f3"/>
      <path id="Path_84" data-name="Path 84" d="M211.467,135.654a.966.966,0,0,1-.513.118c-.371,0-.607-.2-.607-.674a1.929,1.929,0,0,1-1.532.674c-.791,0-1.439-.354-1.439-1.22,0-.985.732-1.2,1.473-1.338.791-.151,1.465-.1,1.465-.64,0-.623-.513-.724-.968-.724-.606,0-1.052.185-1.085.825h-.715c.042-1.078.876-1.456,1.843-1.456.783,0,1.633.177,1.633,1.195v2.239c0,.337,0,.488.227.488a.614.614,0,0,0,.219-.043Zm-1.162-2.23a3.672,3.672,0,0,1-1.3.294c-.471.084-.876.253-.876.783,0,.471.4.64.842.64.943,0,1.329-.589,1.329-.985Z" transform="translate(-129.298 -81.814)" fill="#f3f3f3"/>
      <path id="Path_85" data-name="Path 85" d="M219.936,131.317h.674v.917h.017a1.582,1.582,0,0,1,1.6-1.018v.758c-1.153,0-1.575.656-1.575,1.759v1.936h-.715Z" transform="translate(-137.129 -81.812)" fill="#f3f3f3"/>
      <path id="Path_86" data-name="Path 86" d="M227.425,134.3c.026.64.581.841,1.17.841.447,0,1.052-.1,1.052-.648s-.707-.648-1.422-.808-1.423-.4-1.423-1.229c0-.876.867-1.238,1.624-1.238.96,0,1.726.3,1.785,1.363H229.5c-.051-.555-.539-.732-1.01-.732-.429,0-.926.118-.926.555,0,.514.758.6,1.422.758.715.16,1.422.4,1.422,1.238,0,1.035-.968,1.372-1.852,1.372-.977,0-1.8-.4-1.843-1.473Z" transform="translate(-141.352 -81.814)" fill="#f3f3f3"/>
      <path id="Path_87" data-name="Path 87" d="M19.1,40.809V39.49c0-6.211-2.6-10.593-9.274-10.593C3.105,28.9,0,33.746,0,40.085c0,6.637,3.616,10.891,10.38,10.891,3.318,0,7.7-1.106,7.913-5.148H13.954c-.468,1.361-2.084,1.489-3.361,1.489-3.914,0-6.424-2.638-6.211-6.509ZM4.382,37.15a5.087,5.087,0,0,1,5.36-4.595c2.808,0,4.935,1.744,4.977,4.595Z" transform="translate(0 -18.017)" fill="#f3f3f3" fill-rule="evenodd"/>
      <path id="Path_88" data-name="Path 88" d="M79.95,34.6v-.638c0-3.4-4.084-5.063-8-5.063-3.361,0-8.423,1.106-8.423,6.084a5.26,5.26,0,0,0,3.148,5.1,29.887,29.887,0,0,0,6.338,1.787c1.744.3,3.489.639,3.489,2.808,0,2.468-3.4,2.979-5.233,2.979-1.4,0-4.042-.213-4.127-2.723H62.763c0,4.723,4.467,6.041,8.424,6.041,4.127,0,9.7-1.149,9.7-6.3,0-5.743-5.87-6.338-10.168-7.189-1.616-.3-2.808-.893-2.808-2.723,0-2.17,2.468-2.553,4.041-2.553,1.319,0,3.531.468,3.616,2.383Z" transform="translate(-39.132 -18.016)" fill="#f3f3f3"/>
      <path id="Path_89" data-name="Path 89" d="M139.911,35.022c-.638-4.169-4-6.126-7.955-6.126-6.211,0-9.4,5.233-9.4,10.933,0,5.743,2.723,11.146,9.019,11.146,3.956,0,8.338-2.383,8.338-6.892h-4.383a3.531,3.531,0,0,1-3.658,3.233c-4.126,0-4.935-4.169-4.935-7.53,0-3.488.893-7.232,5.148-7.232,1.616,0,3.361.936,3.445,2.468Z" transform="translate(-76.412 -18.016)" fill="#f3f3f3"/>
      <path id="Path_90" data-name="Path 90" d="M197.268,40.511v.723c0,3.488-1.872,6.424-5.744,6.424-2.127,0-3.7-1.234-3.7-3.446,0-2.808,2.51-3.7,4.892-3.7Zm0,10.082h4.381V37.32c0-6.254-2.382-8.423-8.551-8.423-3.914,0-8.423,1.021-8.721,5.743h4.381c0-2.085,2.3-2.425,4.552-2.425,3.616,0,3.957,1.787,3.957,4.212v.766h-3.957c-4.679,0-9.87,1.659-9.87,7.189,0,4.339,3.531,6.594,7.658,6.594a9.02,9.02,0,0,0,6.169-2.425Z" transform="translate(-114.375 -18.017)" fill="#f3f3f3" fill-rule="evenodd"/>
      <path id="Path_91" data-name="Path 91" d="M252.8,29.279h-4.382V50.593H252.8V39.574c0-3.233.851-7.4,5.02-7.4,1.872,0,2.68,1.744,2.68,3.4v.638h4.382v-.851a6.234,6.234,0,0,0-6.466-6.466,6.772,6.772,0,0,0-5.53,2.723H252.8Z" transform="translate(-154.888 -18.016)" fill="#f3f3f3"/>
      <rect id="Rectangle_13" data-name="Rectangle 13" width="4.35" height="6.156" transform="translate(93.424 47.784)" fill="#f3f3f3"/>
      <rect id="Rectangle_14" data-name="Rectangle 14" width="4.35" height="6.155" transform="translate(93.424 38.021)" fill="#f3f3f3"/>
      <rect id="Rectangle_15" data-name="Rectangle 15" width="4.35" height="6.155" transform="translate(93.424)" fill="#f3f3f3"/>
    </g>
  </g>
</svg>
