<svg xmlns="http://www.w3.org/2000/svg" width="25.746" height="20.91" viewBox="0 0 25.746 20.91">
  <path id="Icon_awesome-twitter" data-name="Icon awesome-twitter" d="M23.1,8.592c.016.229.016.457.016.686A14.91,14.91,0,0,1,8.1,24.291,14.911,14.911,0,0,1,0,21.922a10.916,10.916,0,0,0,1.274.065,10.567,10.567,0,0,0,6.551-2.254,5.286,5.286,0,0,1-4.934-3.659,6.654,6.654,0,0,0,1,.082,5.581,5.581,0,0,0,1.389-.18A5.277,5.277,0,0,1,1.045,10.8v-.065a5.314,5.314,0,0,0,2.385.67A5.284,5.284,0,0,1,1.8,4.345a15,15,0,0,0,10.88,5.522,5.957,5.957,0,0,1-.131-1.209,5.282,5.282,0,0,1,9.132-3.61,10.389,10.389,0,0,0,3.349-1.274,5.262,5.262,0,0,1-2.32,2.908,10.578,10.578,0,0,0,3.039-.817A11.343,11.343,0,0,1,23.1,8.592Z" transform="translate(0 -3.381)" fill="#fff"/>
</svg>
